<svg width="154" height="72" viewBox="0 0 154 72" fill="none" xmlns="http://www.w3.org/2000/svg">
<path d="M0 36C0 24.8174 0 19.2261 1.82689 14.8156C4.26275 8.93492 8.93492 4.26275 14.8156 1.82689C19.2261 0 24.8174 0 36 0H117.33C128.513 0 134.104 0 138.514 1.82689C144.395 4.26275 149.067 8.93492 151.503 14.8156C153.33 19.2261 153.33 24.8174 153.33 36C153.33 47.1826 153.33 52.7739 151.503 57.1844C149.067 63.0651 144.395 67.7373 138.514 70.1731C134.104 72 128.513 72 117.33 72H36C24.8174 72 19.2261 72 14.8156 70.1731C8.93492 67.7373 4.26275 63.0651 1.82689 57.1844C0 52.7739 0 47.1826 0 36Z" fill="#4E505F"/>
<path d="M86.0113 41.592C85.3499 43.4053 84.2619 44.8133 82.7473 45.816C81.2326 46.8187 79.4833 47.32 77.4993 47.32C75.4939 47.32 73.7553 46.8827 72.2833 46.008C70.8326 45.112 69.7019 43.8533 68.8913 42.232C68.1019 40.6107 67.7073 38.68 67.7073 36.44C67.7073 34.2 68.1019 32.2693 68.8913 30.648C69.7019 29.0267 70.8326 27.7787 72.2833 26.904C73.7553 26.008 75.4726 25.56 77.4353 25.56C79.4833 25.56 81.1899 25.9867 82.5553 26.84C83.9419 27.672 84.9659 28.888 85.6273 30.488L83.0993 31.672C82.6299 30.456 81.9473 29.5387 81.0513 28.92C80.1766 28.28 79.0353 27.96 77.6273 27.96C76.1979 27.96 74.9393 28.3013 73.8513 28.984C72.7633 29.6453 71.9099 30.6053 71.2913 31.864C70.6939 33.1227 70.3953 34.648 70.3953 36.44C70.3953 39.0853 71.0246 41.1653 72.2833 42.68C73.5633 44.1733 75.3019 44.92 77.4993 44.92C78.9073 44.92 80.1339 44.568 81.1793 43.864C82.2246 43.1387 82.9819 42.0613 83.4513 40.632L86.0113 41.592Z" fill="white"/>
</svg>
